<svg width="113" height="117" viewBox="0 0 113 117" fill="none" xmlns="http://www.w3.org/2000/svg">
<path fill-rule="evenodd" clip-rule="evenodd" d="M46.9006 0.781525C27.6556 4.02153 10.7156 17.6885 3.67358 35.6565C0.633583 43.4135 -0.078417 47.7235 0.00658299 57.8535C0.173583 77.7705 10.3796 95.3425 27.6376 105.427C30.9376 107.355 34.5376 109.992 35.6376 111.288C38.2656 114.383 51.9136 116.749 67.1376 116.749H78.1376L78.1396 112.999C78.1426 109.449 78.4486 109.089 83.8896 106.251C101.962 96.8245 114.375 74.1205 112.801 53.3695C111.653 38.2255 106.84 27.4725 96.5916 17.1535C83.2536 3.72453 65.0476 -2.27447 46.9006 0.781525ZM69.2186 4.58153C98.7026 12.2785 114.239 46.2015 100.879 73.7115C96.5936 82.5355 86.4606 92.7345 78.0036 96.7355C68.4166 101.271 68.5266 101.343 67.8566 90.1175C67.4226 82.8325 67.7516 78.0205 69.2096 70.3695C71.6936 57.3365 71.7196 57.6825 68.2756 58.3705C65.2606 58.9735 60.4586 57.0445 58.1996 54.3225C57.0466 52.9335 56.5866 53.0345 53.9456 55.2565C51.6666 57.1745 49.8486 57.7485 46.0606 57.7485C43.3526 57.7485 41.1376 57.9135 41.1376 58.1145C41.1376 58.3165 42.2676 64.4765 43.6486 71.8045C45.3396 80.7785 45.8286 85.4575 45.1486 86.1375C44.5926 86.6935 44.1376 89.9835 44.1376 93.4485C44.1376 97.8955 43.7616 99.7485 42.8596 99.7485C40.2556 99.7485 27.4946 92.8595 23.2256 89.1505C5.54858 73.7865 1.88058 45.3805 14.9616 25.1415C26.4486 7.36953 48.2496 -0.892475 69.2186 4.58153ZM49.6656 7.82653C30.1736 11.0415 15.1516 25.7835 12.0406 44.7515C9.96858 57.3795 12.9326 69.2875 20.7306 79.6595C24.6146 84.8275 35.5516 93.6685 36.6726 92.5475C36.8916 92.3275 35.5166 89.9625 33.6166 87.2905C27.3286 78.4465 25.7266 72.7835 25.6796 59.2485C25.6396 47.7855 25.7806 46.9465 28.8306 40.5075C32.7666 32.1985 39.6806 25.1015 47.6506 21.1885C53.2656 18.4315 54.3836 18.2485 65.6376 18.2485C76.3516 18.2485 78.3076 18.5305 83.8876 20.8825C87.3256 22.3305 90.1376 23.1645 90.1376 22.7355C90.1376 21.5215 83.6766 16.1445 78.9276 13.4055C70.2156 8.38153 59.1236 6.26653 49.6656 7.82653ZM54.3616 69.4225C54.4036 80.3195 52.8576 86.4665 50.4636 84.9215C49.6136 84.3725 44.0976 63.1065 44.1286 60.4985C44.1336 60.0855 45.5996 59.7415 47.3876 59.7335C49.1756 59.7245 51.2996 59.2995 52.1086 58.7875C52.9176 58.2755 53.7466 58.0235 53.9496 58.2275C54.1536 58.4305 54.3386 63.4685 54.3616 69.4225ZM65.3876 59.5155C67.4506 59.7595 69.1376 60.1675 69.1376 60.4225C69.1376 61.7635 63.9416 81.6085 63.0376 83.7195L61.9796 86.1905L60.0806 83.7195C58.4646 81.6165 58.1786 79.4815 58.1596 69.3915C58.1396 58.4685 58.2756 57.5955 59.8876 58.3035C60.8496 58.7265 63.3256 59.2715 65.3876 59.5155Z" fill="black"/>
</svg>
